inDegrees=no
num_controls=7
num_derivatives=13
num_iterations=92
num_multipliers=7
num_parameters=0
num_slacks=7
num_states=26
objective=0.431029
objective_accelerations=0.050634
objective_balance=0.007149
objective_effort=0.031779
objective_height=0.340304
objective_ligament=0.001163
solver_duration=1184.704377
status=Solve_Succeeded
success=true
DataType=double
version=3
OpenSimVersion=4.5
endheader
time	/jointset/ground_pelvis/pelvis_tilt/value	/jointset/ground_pelvis/pelvis_tx/value	/jointset/ground_pelvis/pelvis_ty/value	/jointset/hip_l/hip_flexion_l/value	/jointset/hip_l/hip_adduction_l/value	/jointset/hip_l/hip_rotation_l/value	/jointset/back/lumbar_extension/value	/jointset/patellofemoral_l/patellar_flexion_l/value	/jointset/knee_l/knee_flexion_l/value	/jointset/knee_l/knee_adduction_l/value	/jointset/knee_l/knee_rotation_l/value	/jointset/ankle_l/ankle_angle_l/value	/jointset/subtalar_l/subtalar_angle_l/value	/jointset/ground_pelvis/pelvis_tilt/speed	/jointset/ground_pelvis/pelvis_tx/speed	/jointset/ground_pelvis/pelvis_ty/speed	/jointset/hip_l/hip_flexion_l/speed	/jointset/hip_l/hip_adduction_l/speed	/jointset/hip_l/hip_rotation_l/speed	/jointset/back/lumbar_extension/speed	/jointset/patellofemoral_l/patellar_flexion_l/speed	/jointset/knee_l/knee_flexion_l/speed	/jointset/knee_l/knee_adduction_l/speed	/jointset/knee_l/knee_rotation_l/speed	/jointset/ankle_l/ankle_angle_l/speed	/jointset/subtalar_l/subtalar_angle_l/speed	/forceset/tau_hip_flexion_l	/forceset/tau_hip_adduction_l	/forceset/tau_hip_rotation_l	/forceset/tau_knee_flexion_l	/forceset/tau_ankle_angle_l	/forceset/tau_subtalar_angle_l	/forceset/tau_lumbar_extension	lambda_cid13_p0	lambda_cid13_p1	lambda_cid13_p2	lambda_cid13_p3	lambda_cid13_p4	lambda_cid13_p5	lambda_cid14_p0	/jointset/ground_pelvis/pelvis_tilt/accel	/jointset/ground_pelvis/pelvis_tx/accel	/jointset/ground_pelvis/pelvis_ty/accel	/jointset/hip_l/hip_flexion_l/accel	/jointset/hip_l/hip_adduction_l/accel	/jointset/hip_l/hip_rotation_l/accel	/jointset/back/lumbar_extension/accel	/jointset/patellofemoral_l/patellar_flexion_l/accel	/jointset/knee_l/knee_flexion_l/accel	/jointset/knee_l/knee_adduction_l/accel	/jointset/knee_l/knee_rotation_l/accel	/jointset/ankle_l/ankle_angle_l/accel	/jointset/subtalar_l/subtalar_angle_l/accel	gamma_cid13_p0	gamma_cid13_p1	gamma_cid13_p2	gamma_cid13_p3	gamma_cid13_p4	gamma_cid13_p5	gamma_cid14_p0
1.5	-0.3416937240313985	-0.03682383105621271	0.7622354189105653	1.188895080309261	-0.3051923226567504	0.01185559204683881	-0.3414719205947381	0.8211489151227183	0.8211489151228294	-0.1734232950694405	0.167133458301452	0.1552306800214559	-0.02154837162312806	0.4410228762164706	0.164839930492807	0.5133486677344912	-2.132066841439636	-0.01279947885617551	-0.6972861197587942	0.5731407041615355	-2.095718855405965	-2.095718855405439	0.006896181171143885	-0.04420865744689813	-0.5266555571640913	-0.09947027759445204	-0.1973900700204353	0.010131428084625	-0.02615801886249599	-0.2579973715913662	0.1085692702170135	0.04527161872988089	0.1955471691599337	-3.324821513387038	-21.99240160459354	6.43122049457472	-4.166935765190925	-609.0666100480773	-66.33966883183054	-20.23022104397307	0.5344813857214037	0.6104750008167625	-0.386300848996301	-1.460444714056345	0.6873695283075255	-0.3575549048458734	1.748808876851778	-1.416186482032767	-1.41618648203275	0.05507582579950343	-0.1055097692880564	-0.5065544084441767	0.7122569940589416	4.136377219753016e-07	3.797173120989813e-07	-2.594634968415941e-06	-2.93178286499472e-07	4.930662992377607e-07	1.815831055873865e-07	4.029535111179102e-07
1.51	-0.3372569266718948	-0.03514505443163247	0.7673485199042017	1.167503581817689	-0.3052870261067233	0.004867801335013743	-0.3356544107360309	0.8001232586001623	0.8001232586001573	-0.1733554276113958	0.1666859660898972	0.1499391533042155	-0.02250886790959384	0.4462754601356362	0.1708954165453845	0.5091613450088185	-2.145923314778551	-0.006115851187943686	-0.70019850333324	0.5902725247145911	-2.109100978688764	-2.109100978687995	0.006692971954042283	-0.0452745372122107	-0.5315565016444775	-0.09260536836319801	-0.1910006785761867	0.00983595287829165	-0.02602033842685276	-0.2550689627261415	0.1099115272211939	0.04500050556091285	0.1901921280427976	-2.654767139134086	-22.06565837913859	6.527058426724551	-4.351300328517953	-604.5162535631712	-66.43869899419853	-21.51096861953112	0.5115172252338542	0.6000278142689593	-0.4513636956934285	-1.30176269663817	0.6630211100619918	-0.2466510345848703	1.682057214729417	-1.252593645400316	-1.252593645364018	-0.055693945376734	-0.1042895553507373	-0.4678855683827089	0.6773876257774534	4.490826812095746e-07	4.945844728026061e-07	-2.718529518417172e-06	-3.006886904197932e-07	5.378571699179251e-07	2.793932034140303e-07	4.305605174387241e-07
1.52	-0.3327694294071555	-0.03340633446516832	0.7724164645283131	1.145982815782161	-0.3053140609352178	-0.002146827402723719	-0.3296682449577537	0.7789731071659791	0.7789731071658601	-0.1732891271755044	0.1662283825856495	0.1446014129220619	-0.02339995915612332	0.4511628572635907	0.1768285988695906	0.504317393829521	-2.157920350230627	0.0007342454395273061	-0.7026537249413234	0.6068718880755259	-2.120617837731439	-2.120617837730428	0.006582776740471159	-0.04622691598543854	-0.5358982901467384	-0.08558926960719107	-0.1846112871319369	0.009540477671959051	-0.02588265799121397	-0.2521405538609161	0.1112537842253746	0.04472939239194575	0.1848370869256624	-1.988511632100852	-22.14086952823196	6.626202027303577	-4.56003694394484	-600.0578263592715	-66.62844500817943	-22.78670498196329	0.4614440274791765	0.5860142551424715	-0.5176265397212427	-1.088557136688333	0.7206633201553602	-0.2661225115734271	1.642317438427652	-1.043133634007952	-1.043133634007881	0.0736786265055977	-0.08280957087110807	-0.3947232128191284	0.7424948990095253	5.018439446025546e-07	5.848540219150343e-07	-2.948340252965804e-06	-3.251644634519573e-07	6.002010588937896e-07	3.81222115847982e-07	4.709336577833334e-07
1.53	-0.328234849218029	-0.0316089852120503	0.7774327458105026	1.124351282437133	-0.3052722180825685	-0.009183007333206599	-0.3235190608694698	0.7577169488473426	0.7577169488473531	-0.1732246014909009	0.1657615456455506	0.1392228845786165	-0.0242206750374919	0.4556855271053849	0.1826111527584656	0.4988322065262156	-2.16805647035575	0.007646711046207562	-0.7044882758213202	0.6228550200211631	-2.130288036722603	-2.130288036722488	0.006317833088361578	-0.0471323716223593	-0.5397131930014495	-0.07854513417182531	-0.1781209170722843	0.009179998655314447	-0.0256670373690665	-0.2492428681307743	0.1124799844423231	0.0441897679925766	0.1793488568760289	-1.371282944819594	-22.08059780974034	6.691996732818575	-4.626098112508568	-595.6165193158373	-66.60539537594254	-24.05543850597051	0.4375841633223634	0.5697830225831533	-0.5798183268688054	-0.9265904471239168	0.6788403625645186	-0.1275216966966869	1.559824638612957	-0.8802053899399497	-0.8802053900744093	-0.07731063491689892	-0.09251705944159641	-0.360759290917262	0.686986551970127	5.73003781164161e-07	6.489886087118163e-07	-3.290686933596047e-06	-3.676659411654543e-07	6.811950298088353e-07	4.873210188021982e-07	5.248708155282254e-07
1.54	-0.3236570611903261	-0.0297547290066789	0.7823910045194122	1.102628297691514	-0.3051607901375245	-0.01623461283658579	-0.3172133427485333	0.7363738400671408	0.7363738400672712	-0.1731628711975882	0.1652860334492144	0.1338090301128001	-0.02497062682727281	0.4598044249788919	0.1882099893202659	0.4927128791735673	-2.176210630348859	0.01465126391849388	-0.7057388395206716	0.638178694606048	-2.13800793004454	-2.138007930045322	0.006023698482345769	-0.04796196723284155	-0.5429635146209674	-0.07143645128965838	-0.1716305470126299	0.008819519638671496	-0.02545141674692634	-0.246345182400631	0.1137061846592722	0.04365014359320947	0.1738606268263966	-0.75593983663026	-22.02461329925845	6.763751496318902	-4.730407013609216	-591.2440320427813	-66.69016302982399	-25.31580393182882	0.380689633821736	0.5492707897275306	-0.6444545495898311	-0.6921651102854403	0.739080773276574	-0.1493250754443255	1.510425966277163	-0.6530725001626031	-0.6530725001626048	0.0678404357243509	-0.0676375655834064	-0.2818069657804934	0.7554043883697542	6.161549613954244e-07	7.806369925312461e-07	-3.462407524532109e-06	-3.803447213132757e-07	7.401865235006634e-07	6.049398272528494e-07	5.598120925287359e-07
1.55	-0.3190400852251356	-0.02784542948614882	0.7872850097042072	1.080833459664728	-0.3049791564805799	-0.02329589641207491	-0.3107579919226596	0.7149631287507203	0.7149631287506412	-0.1731045803864968	0.1648027151604636	0.1283654450713922	-0.02564949278736303	0.4635170011107251	0.1936163690646191	0.485990079550226	-2.182424994351236	0.0216726893714816	-0.7063860248173265	0.6527600202670418	-2.143808646075716	-2.143808646076152	0.005595329673019961	-0.04871768252620047	-0.5456539059664823	-0.06434326499382576	-0.1648874758847561	0.008098752275982715	-0.02521042124997147	-0.2440222119908856	0.1155815742502298	0.04285946744363234	0.1681835162485896	0.04587585765140492	-21.88719484412217	6.816750291985047	-4.918031503106186	-587.0973953793856	-66.70350213971935	-26.56693425551296	0.3555332448234064	0.5312203852406008	-0.7007459006490128	-0.5361993577667353	0.683646488863789	-0.002094417180709624	1.412268320756705	-0.4948341039079822	-0.4948341038560385	-0.1040439374507655	-0.08126100907323575	-0.2477175569439386	0.685521702111013	6.270352984634685e-07	9.900730120506786e-07	-3.437537186037928e-06	-3.586625673093422e-07	7.738273369135685e-07	7.358315702972183e-07	5.728668112802868e-07
1.56	-0.3143881851702349	-0.02588308640448492	0.7921088762463802	1.058986452535407	-0.3047273139575947	-0.03035958767261191	-0.3041607713492266	0.6935041576841255	0.6935041576838401	-0.1730517469431357	0.1643114952192076	0.1228979436489276	-0.02625757769411073	0.4667892429209305	0.1988187015470283	0.4786851506491769	-2.186644450855727	0.02869303712662655	-0.7062203765301676	0.6665526441178851	-2.147659880079406	-2.147659880079495	0.004932224936105276	-0.0495422977340036	-0.5477467908322751	-0.05728024062115331	-0.158144404756882	0.007377984913292247	-0.02496942575300807	-0.2416992415811419	0.1174569638411866	0.04206879129405311	0.1625064056707834	0.84819233539873	-21.75508381100441	6.876559765141457	-5.153222340290391	-582.9866599098939	-66.8264678373105	-27.80826064191312	0.2926227694961669	0.5084613373387413	-0.7608804051313559	-0.293183610708293	0.7388652337080194	0.01324164131841312	1.352685604247099	-0.2631760946652953	-0.2631760946652948	0.02089325020657432	-0.08141754847224773	-0.1623056698360527	0.7493720037377116	5.426819561239102e-07	1.302061631902735e-06	-2.945963248700355e-06	-2.533376391317786e-07	7.123780993653863e-07	8.243386385472137e-07	5.266440860135669e-07
1.57	-0.3097058864064153	-0.02386986573791424	0.7968568027763504	1.037107752160323	-0.3044048283507284	-0.03742039096247415	-0.2974295618498065	0.672017249077695	0.6720172490775417	-0.1730040675622221	0.1638135791830637	0.1174127721907866	-0.02679460577549166	0.4695963073874963	0.2037782556489053	0.4708090543435585	-2.188747600170327	0.03579041009353542	-0.7058021918642103	0.6795402908367091	-2.149384121593205	-2.14938412159286	0.004554234809329531	-0.05005199639874638	-0.5491931647664533	-0.05014438566320257	-0.1515772766593516	0.006759227103528688	-0.02468141810588167	-0.2391134143732139	0.1187374245721459	0.04103399572827313	0.1569064468896529	1.438063542157396	-21.47153967281211	6.902842269327986	-5.107387765872422	-579.0406044594298	-66.6749166164154	-29.02632310216748	0.2636417734311898	0.4826415048546281	-0.8145537433899346	-0.1166456437894158	0.6930958741756553	0.07718216192714428	1.24945946627783	-0.07645764764589386	-0.07645764758079114	-0.07430575018760581	-0.03712327687022053	-0.1216259447773557	0.6926726151026957	3.392865145248501e-07	1.74224100217057e-06	-1.871009812808546e-06	-4.345924323717844e-08	5.320662981158463e-07	8.598648633042428e-07	4.063245557240092e-07
1.58	-0.3049977383002911	-0.0218084617186763	0.8015232524432419	1.015218467281704	-0.3040117845049943	-0.04447279734913825	-0.2905729448310825	0.6505232161625445	0.6505232161625278	-0.1729616002037892	0.1633102907099942	0.11191597245539	-0.02726087923263728	0.4719591113818385	0.2084553720804803	0.4623897780334268	-2.18876135156307	0.04280468490017771	-0.7045409958905424	0.6916341479786441	-2.149084741823351	-2.149084741822572	0.003889820439835619	-0.05061678511928643	-0.5500724462833771	-0.04312931577409408	-0.1450101485618205	0.006140469293765295	-0.02439341045874999	-0.2365275871652866	0.1200178853031051	0.03999920016249334	0.1513064881085232	2.020855384137215	-21.19061948723675	6.933956919134466	-5.064340363791525	-575.2241483948034	-66.60043308318613	-30.20980510135281	0.2037706750514672	0.4519738032783422	-0.8695164060339793	0.1246959736631912	0.7222456016547005	0.1818439028605367	1.173927688869282	0.1415481620654738	0.1415481620654557	-0.03639159833705961	-0.09243555963170338	-0.04888718638514859	0.7252149899692631	2.121039787240499e-07	2.037446349900055e-06	-1.211822854555395e-06	8.87842579169376e-08	4.235755459934886e-07	8.947328555510879e-07	3.338436907779889e-07
